<svg xmlns="http://www.w3.org/2000/svg" xmlns:xlink="http://www.w3.org/1999/xlink" width="500" zoomAndPan="magnify" viewBox="0 0 375 374.999991" height="500" preserveAspectRatio="xMidYMid meet" version="1.0"><defs><g/><clipPath id="a3a2bb150c"><path d="M 112.785156 128 L 262.035156 128 L 262.035156 145 L 112.785156 145 Z M 112.785156 128 " clip-rule="nonzero"/></clipPath><clipPath id="84d6fc35d0"><path d="M 112.785156 148 L 262.035156 148 L 262.035156 162 L 112.785156 162 Z M 112.785156 148 " clip-rule="nonzero"/></clipPath><clipPath id="6eb0f66d98"><path d="M 145 71.921875 L 229 71.921875 L 229 85 L 145 85 Z M 145 71.921875 " clip-rule="nonzero"/></clipPath><clipPath id="95557d1555"><path d="M 145 208 L 229 208 L 229 221.894531 L 145 221.894531 Z M 145 208 " clip-rule="nonzero"/></clipPath><clipPath id="2e77ba5065"><path d="M 114 164 L 261 164 L 261 221.894531 L 114 221.894531 Z M 114 164 " clip-rule="nonzero"/></clipPath><clipPath id="9784a3e0b2"><path d="M 154 214 L 217 214 L 217 221.894531 L 154 221.894531 Z M 154 214 " clip-rule="nonzero"/></clipPath><clipPath id="77d77626e5"><path d="M 141.335938 102.488281 L 176.09375 102.488281 L 176.09375 137.25 L 141.335938 137.25 Z M 141.335938 102.488281 " clip-rule="nonzero"/></clipPath><clipPath id="4aac26e137"><path d="M 158.714844 102.488281 C 149.117188 102.488281 141.335938 110.269531 141.335938 119.871094 C 141.335938 129.46875 149.117188 137.25 158.714844 137.25 C 168.3125 137.25 176.09375 129.46875 176.09375 119.871094 C 176.09375 110.269531 168.3125 102.488281 158.714844 102.488281 " clip-rule="nonzero"/></clipPath></defs><rect x="-37.5" width="450" fill="#ffffff" y="-37.499999" height="449.999989" fill-opacity="1"/><rect x="-37.5" width="450" fill="#ffffff" y="-37.499999" height="449.999989" fill-opacity="1"/><rect x="-37.5" width="450" fill="#ffffff" y="-37.499999" height="449.999989" fill-opacity="1"/><path fill="#4a8aaf" d="M 140.867188 88.246094 C 135.019531 92.910156 129.90625 98.429688 125.703125 104.621094 L 249.128906 104.621094 C 244.921875 98.429688 239.8125 92.910156 233.964844 88.246094 Z M 140.867188 88.246094 " fill-opacity="1" fill-rule="nonzero"/><path fill="#faba8a" d="M 123.328125 108.339844 C 120.253906 113.484375 117.8125 118.984375 116.054688 124.714844 L 258.773438 124.714844 C 257.015625 118.984375 254.574219 113.484375 251.503906 108.339844 Z M 123.328125 108.339844 " fill-opacity="1" fill-rule="nonzero"/><g clip-path="url(#a3a2bb150c)"><path fill="#fc9248" d="M 115.019531 128.433594 C 113.671875 133.792969 112.921875 139.285156 112.785156 144.808594 L 262.046875 144.808594 C 261.90625 139.285156 261.160156 133.792969 259.8125 128.433594 Z M 115.019531 128.433594 " fill-opacity="1" fill-rule="nonzero"/></g><g clip-path="url(#84d6fc35d0)"><path fill="#c32929" d="M 112.785156 148.527344 C 112.890625 152.726562 113.347656 156.910156 114.152344 161.03125 L 260.675781 161.03125 C 261.484375 156.910156 261.941406 152.726562 262.046875 148.527344 Z M 112.785156 148.527344 " fill-opacity="1" fill-rule="nonzero"/></g><path fill="#6bb8a6" d="M 116.054688 168.625 C 117.8125 174.355469 120.257812 179.855469 123.328125 185 L 251.5 185 C 254.570312 179.855469 257.015625 174.355469 258.773438 168.625 Z M 116.054688 168.625 " fill-opacity="1" fill-rule="nonzero"/><g clip-path="url(#6eb0f66d98)"><path fill="#34658e" d="M 187.351562 71.9375 C 172.613281 71.949219 158.207031 76.332031 145.953125 84.523438 L 228.878906 84.523438 C 216.601562 76.320312 202.175781 71.9375 187.414062 71.9375 Z M 187.351562 71.9375 " fill-opacity="1" fill-rule="nonzero"/></g><path fill="#4d8079" d="M 125.703125 188.71875 C 129.910156 194.910156 135.019531 200.429688 140.867188 205.09375 L 233.964844 205.09375 C 239.808594 200.425781 244.917969 194.910156 249.128906 188.71875 Z M 125.703125 188.71875 " fill-opacity="1" fill-rule="nonzero"/><g clip-path="url(#95557d1555)"><path fill="#254e48" d="M 145.953125 208.816406 C 158.226562 217.019531 172.65625 221.398438 187.414062 221.398438 C 202.175781 221.398438 216.601562 217.019531 228.878906 208.816406 Z M 145.953125 208.816406 " fill-opacity="1" fill-rule="nonzero"/></g><path fill="#ffffff" d="M 182.949219 119.210938 C 182.949219 132.699219 172.027344 143.636719 158.546875 143.636719 C 145.070312 143.636719 134.144531 132.699219 134.144531 119.210938 C 134.144531 105.71875 145.070312 94.78125 158.546875 94.78125 C 172.027344 94.78125 182.949219 105.71875 182.949219 119.210938 Z M 182.949219 119.210938 " fill-opacity="1" fill-rule="nonzero"/><g clip-path="url(#2e77ba5065)"><path fill="#4a8aaf" d="M 114.382812 164.214844 C 122.488281 198.019531 152.6875 221.851562 187.414062 221.851562 C 222.140625 221.851562 252.339844 198.019531 260.445312 164.214844 Z M 114.382812 164.214844 " fill-opacity="1" fill-rule="nonzero"/></g><path fill="#34658e" d="M 258.957031 169.550781 L 171.898438 180.15625 L 253.125 183.074219 C 255.507812 178.769531 257.460938 174.238281 258.957031 169.550781 Z M 258.957031 169.550781 " fill-opacity="1" fill-rule="nonzero"/><path fill="#34658e" d="M 120.714844 181.226562 C 122.804688 185.265625 125.253906 189.105469 128.03125 192.703125 L 219.347656 193.113281 Z M 120.714844 181.226562 " fill-opacity="1" fill-rule="nonzero"/><g clip-path="url(#9784a3e0b2)"><path fill="#34658e" d="M 154.597656 214.292969 C 164.824219 219.265625 176.046875 221.851562 187.414062 221.851562 C 197.25 221.851562 206.984375 219.917969 216.074219 216.160156 Z M 154.597656 214.292969 " fill-opacity="1" fill-rule="nonzero"/></g><path fill="#051d3b" d="M 218.515625 80.332031 C 213.582031 84.507812 212.796875 94.714844 212.796875 94.714844 C 214.675781 92.414062 217.011719 91.894531 217.011719 91.894531 C 213.425781 97.734375 213.804688 103.742188 213.804688 103.742188 C 213.804688 103.742188 219.734375 91.449219 229.78125 87.800781 C 239.832031 84.15625 247.832031 88.519531 247.832031 88.519531 C 241.464844 86.578125 231.75 91.113281 231.75 91.113281 C 236.390625 91.53125 240.257812 94.125 240.257812 94.125 C 230.46875 92.316406 220.046875 100.734375 220.046875 100.734375 C 224.859375 98.917969 230.132812 99.101562 230.132812 99.101562 C 220.445312 102.171875 216.574219 108.410156 216.574219 108.410156 C 216.574219 108.410156 233.820312 99.300781 248.496094 106.789062 C 248.496094 106.789062 242.699219 106.371094 236.8125 108.011719 L 241.109375 112.902344 C 241.109375 112.902344 235.929688 109.503906 228.722656 110.339844 L 232.023438 114.882812 C 232.023438 114.882812 227.222656 110.207031 217.050781 112.464844 C 222.117188 117.222656 230.417969 128.328125 230.175781 149.878906 L 223.972656 152.214844 C 225.347656 133.359375 218.953125 119.21875 215.433594 113.003906 C 214.597656 113.832031 211.449219 117.453125 212.851562 123.851562 C 212.851562 123.851562 211.296875 121.257812 210.640625 118.753906 C 210.640625 118.753906 204.074219 122.820312 205.070312 130.839844 C 205.070312 130.839844 203.5625 128.367188 203.175781 125.039062 C 198.710938 127.011719 197.960938 131.925781 197.960938 131.925781 C 193.933594 119.699219 212.257812 110.761719 212.257812 110.761719 C 204.023438 110.390625 193.523438 118.984375 193.523438 118.984375 L 194.578125 114.101562 C 191.1875 115.089844 184.894531 119.488281 184.894531 119.488281 C 190.636719 106.324219 209.371094 105.769531 209.371094 105.769531 C 206.109375 96.773438 208.066406 84.234375 218.515625 80.332031 Z M 218.515625 80.332031 " fill-opacity="1" fill-rule="nonzero"/><path fill="#051d3b" d="M 233.058594 146.835938 C 220.03125 146.835938 207.84375 152.152344 200.507812 161.035156 L 261.136719 161.035156 C 261.390625 159.726562 261.609375 158.417969 261.792969 157.101562 C 254.34375 150.550781 243.945312 146.835938 233.058594 146.835938 C 233.0625 146.835938 233.058594 146.835938 233.058594 146.835938 Z M 233.058594 146.835938 " fill-opacity="1" fill-rule="nonzero"/><path fill="#051d3b" d="M 235.402344 110.117188 C 238.183594 112.023438 239.136719 117.277344 239.136719 117.277344 C 238.035156 116.183594 236.796875 116.039062 236.796875 116.039062 C 238.96875 118.878906 239.089844 122.015625 239.089844 122.015625 C 239.089844 122.015625 235.359375 115.953125 229.949219 114.597656 C 224.539062 113.242188 220.621094 115.933594 220.621094 115.933594 C 223.820312 114.589844 229.105469 116.421875 229.105469 116.421875 C 226.722656 116.886719 224.851562 118.4375 224.851562 118.4375 C 229.835938 116.976562 235.691406 120.789062 235.691406 120.789062 C 233.097656 120.105469 230.371094 120.480469 230.371094 120.480469 C 235.5625 121.558594 237.902344 124.585938 237.902344 124.585938 C 237.902344 124.585938 228.46875 120.78125 221.25 125.453125 C 221.25 125.453125 224.238281 124.925781 227.378906 125.464844 L 225.410156 128.230469 C 225.410156 128.230469 227.914062 126.1875 231.699219 126.238281 L 230.226562 128.769531 C 230.226562 128.769531 232.472656 126.085938 237.867188 126.714844 C 235.492188 129.457031 231.78125 135.660156 233.054688 146.832031 L 236.398438 147.714844 C 234.679688 138.003906 237.242188 130.320312 238.738281 126.910156 C 239.214844 127.296875 241.042969 129.003906 240.65625 132.402344 C 240.65625 132.402344 241.324219 130.972656 241.53125 129.636719 C 241.53125 129.636719 245.15625 131.398438 245.066406 135.613281 C 245.066406 135.613281 245.714844 134.25 245.738281 132.503906 C 248.160156 133.289062 248.8125 135.796875 248.8125 135.796875 C 250.25 129.238281 240.265625 125.578125 240.265625 125.578125 C 244.519531 124.949219 250.425781 128.84375 250.425781 128.84375 L 249.617188 126.367188 C 251.429688 126.699219 254.929688 128.644531 254.929688 128.644531 C 251.25 122.121094 241.5 122.832031 241.5 122.832031 C 242.710938 117.988281 241.027344 111.585938 235.402344 110.117188 Z M 235.402344 110.117188 " fill-opacity="1" fill-rule="nonzero"/><g clip-path="url(#77d77626e5)"><g clip-path="url(#4aac26e137)"><path fill="#faba8a" d="M 141.335938 102.488281 L 176.09375 102.488281 L 176.09375 137.25 L 141.335938 137.25 Z M 141.335938 102.488281 " fill-opacity="1" fill-rule="nonzero"/></g></g><g fill="#051d3b" fill-opacity="1"><g transform="translate(61.571228, 273.316506)"><g><path d="M 5.546875 0 L 1.625 -21.703125 L 5.234375 -21.703125 L 6.765625 -12.28125 C 6.898438 -11.507812 7.035156 -10.515625 7.171875 -9.296875 C 7.304688 -8.085938 7.460938 -6.648438 7.640625 -4.984375 L 7.765625 -4.984375 C 8.109375 -6.679688 8.441406 -8.132812 8.765625 -9.34375 C 9.097656 -10.5625 9.382812 -11.578125 9.625 -12.390625 L 12.28125 -21.703125 L 15.171875 -21.703125 L 17.859375 -12.390625 C 18.097656 -11.578125 18.375 -10.5625 18.6875 -9.34375 C 19.007812 -8.132812 19.351562 -6.679688 19.71875 -4.984375 L 19.890625 -4.984375 C 20.046875 -6.648438 20.1875 -8.085938 20.3125 -9.296875 C 20.445312 -10.515625 20.582031 -11.507812 20.71875 -12.28125 L 22.296875 -21.703125 L 25.90625 -21.703125 L 21.984375 0 L 18.53125 0 L 14.890625 -11.796875 C 14.679688 -12.460938 14.492188 -13.148438 14.328125 -13.859375 C 14.171875 -14.578125 14.015625 -15.515625 13.859375 -16.671875 L 13.703125 -16.671875 C 13.515625 -15.515625 13.320312 -14.570312 13.125 -13.84375 C 12.925781 -13.113281 12.738281 -12.429688 12.5625 -11.796875 L 8.984375 0 Z M 5.546875 0 "/></g></g></g><g fill="#051d3b" fill-opacity="1"><g transform="translate(97.023489, 273.316506)"><g><path d="M 9.3125 0.390625 C 7.75 0.390625 6.300781 0.238281 4.96875 -0.0625 C 3.632812 -0.363281 2.503906 -0.726562 1.578125 -1.15625 L 2.609375 -4 C 3.453125 -3.65625 4.460938 -3.320312 5.640625 -3 C 6.816406 -2.6875 8.066406 -2.53125 9.390625 -2.53125 C 10.785156 -2.53125 11.945312 -2.796875 12.875 -3.328125 C 13.800781 -3.859375 14.265625 -4.625 14.265625 -5.625 C 14.265625 -6.519531 13.894531 -7.257812 13.15625 -7.84375 C 12.414062 -8.425781 11.222656 -8.96875 9.578125 -9.46875 C 7.890625 -10 6.476562 -10.5625 5.34375 -11.15625 C 4.207031 -11.75 3.34375 -12.453125 2.75 -13.265625 C 2.15625 -14.085938 1.859375 -15.128906 1.859375 -16.390625 C 1.859375 -18.035156 2.53125 -19.398438 3.875 -20.484375 C 5.226562 -21.566406 7.382812 -22.109375 10.34375 -22.109375 C 11.601562 -22.109375 12.796875 -21.992188 13.921875 -21.765625 C 15.046875 -21.535156 15.925781 -21.222656 16.5625 -20.828125 L 16.5625 -17.859375 C 15.875 -18.179688 14.953125 -18.484375 13.796875 -18.765625 C 12.648438 -19.054688 11.457031 -19.203125 10.21875 -19.203125 C 8.425781 -19.203125 7.171875 -18.929688 6.453125 -18.390625 C 5.742188 -17.859375 5.390625 -17.25 5.390625 -16.5625 C 5.390625 -15.976562 5.550781 -15.488281 5.875 -15.09375 C 6.207031 -14.695312 6.773438 -14.3125 7.578125 -13.9375 C 8.390625 -13.570312 9.484375 -13.148438 10.859375 -12.671875 C 12.117188 -12.253906 13.273438 -11.765625 14.328125 -11.203125 C 15.390625 -10.648438 16.226562 -9.957031 16.84375 -9.125 C 17.46875 -8.289062 17.78125 -7.226562 17.78125 -5.9375 C 17.78125 -4.832031 17.507812 -3.796875 16.96875 -2.828125 C 16.425781 -1.867188 15.535156 -1.09375 14.296875 -0.5 C 13.054688 0.09375 11.394531 0.390625 9.3125 0.390625 Z M 9.3125 0.390625 "/></g></g></g><g fill="#051d3b" fill-opacity="1"><g transform="translate(124.276596, 273.316506)"><g><path d="M 9.34375 0 L 9.34375 -15.40625 C 9.34375 -16.695312 9.046875 -17.644531 8.453125 -18.25 C 7.859375 -18.863281 6.863281 -19.171875 5.46875 -19.171875 C 4.519531 -19.171875 3.628906 -19.035156 2.796875 -18.765625 C 1.960938 -18.503906 1.160156 -18.164062 0.390625 -17.75 L 0.390625 -20.90625 C 0.921875 -21.175781 1.675781 -21.441406 2.65625 -21.703125 C 3.632812 -21.972656 4.796875 -22.109375 6.140625 -22.109375 C 8.203125 -22.109375 9.835938 -21.644531 11.046875 -20.71875 C 12.265625 -19.789062 12.875 -18.191406 12.875 -15.921875 L 12.875 0 Z M 9.34375 0 "/></g></g></g><g fill="#051d3b" fill-opacity="1"><g transform="translate(148.281733, 273.316506)"><g><path d="M 7.5625 0.390625 C 6.53125 0.390625 5.53125 0.285156 4.5625 0.078125 C 3.601562 -0.128906 2.582031 -0.523438 1.5 -1.109375 L 2.609375 -3.796875 C 3.191406 -3.453125 3.851562 -3.15625 4.59375 -2.90625 C 5.332031 -2.65625 6.191406 -2.53125 7.171875 -2.53125 C 9.117188 -2.53125 10.640625 -3.242188 11.734375 -4.671875 C 12.835938 -6.097656 13.390625 -8.1875 13.390625 -10.9375 C 13.390625 -13.601562 12.828125 -15.640625 11.703125 -17.046875 C 10.578125 -18.460938 8.851562 -19.171875 6.53125 -19.171875 C 5.6875 -19.171875 4.828125 -19.078125 3.953125 -18.890625 C 3.085938 -18.703125 2.320312 -18.425781 1.65625 -18.0625 L 1.65625 -21.03125 C 2.394531 -21.425781 3.226562 -21.703125 4.15625 -21.859375 C 5.082031 -22.023438 6.007812 -22.109375 6.9375 -22.109375 C 9.3125 -22.109375 11.238281 -21.640625 12.71875 -20.703125 C 14.195312 -19.765625 15.28125 -18.457031 15.96875 -16.78125 C 16.65625 -15.101562 17 -13.15625 17 -10.9375 C 17 -7.445312 16.210938 -4.6875 14.640625 -2.65625 C 13.066406 -0.625 10.707031 0.390625 7.5625 0.390625 Z M 7.5625 0.390625 "/></g></g></g><g fill="#051d3b" fill-opacity="1"><g transform="translate(175.693284, 273.316506)"><g><path d="M 5.390625 0 L 1.625 -21.703125 L 5.234375 -21.703125 L 6.609375 -12.28125 C 6.640625 -12.019531 6.703125 -11.488281 6.796875 -10.6875 C 6.890625 -9.894531 6.992188 -8.984375 7.109375 -7.953125 C 7.222656 -6.929688 7.335938 -5.941406 7.453125 -4.984375 L 7.640625 -4.984375 C 7.828125 -6.066406 8.078125 -7.222656 8.390625 -8.453125 C 8.710938 -9.679688 9.070312 -10.992188 9.46875 -12.390625 L 12.15625 -21.703125 L 15.015625 -21.703125 L 17.703125 -12.390625 C 18.097656 -10.992188 18.445312 -9.679688 18.75 -8.453125 C 19.050781 -7.222656 19.3125 -6.066406 19.53125 -4.984375 L 19.6875 -4.984375 C 19.84375 -6.597656 19.976562 -8.023438 20.09375 -9.265625 C 20.21875 -10.503906 20.332031 -11.507812 20.4375 -12.28125 L 22.703125 -29.515625 L 26.1875 -29.515625 L 21.828125 0 L 18.34375 0 L 14.734375 -11.796875 C 14.546875 -12.359375 14.375 -13.019531 14.21875 -13.78125 C 14.0625 -14.550781 13.890625 -15.515625 13.703125 -16.671875 L 13.546875 -16.671875 C 13.335938 -15.515625 13.148438 -14.570312 12.984375 -13.84375 C 12.828125 -13.113281 12.644531 -12.429688 12.4375 -11.796875 L 8.828125 0 Z M 5.390625 0 "/></g></g></g><g fill="#051d3b" fill-opacity="1"><g transform="translate(203.621856, 273.356125)"><g><path d="M -19.5625 -25.15625 L -19.5625 -26.890625 C -19.09375 -26.992188 -18.59375 -27.144531 -18.0625 -27.34375 C -17.53125 -27.539062 -17.085938 -27.796875 -16.734375 -28.109375 C -16.378906 -28.429688 -16.203125 -28.832031 -16.203125 -29.3125 C -16.203125 -30.101562 -16.582031 -30.5 -17.34375 -30.5 C -17.632812 -30.5 -17.914062 -30.445312 -18.1875 -30.34375 C -18.46875 -30.238281 -18.71875 -30.144531 -18.9375 -30.0625 L -19.765625 -32.234375 C -19.210938 -32.660156 -18.617188 -32.9375 -17.984375 -33.0625 C -17.347656 -33.195312 -16.804688 -33.265625 -16.359375 -33.265625 C -15.328125 -33.265625 -14.503906 -32.972656 -13.890625 -32.390625 C -13.285156 -31.816406 -12.984375 -31.054688 -12.984375 -30.109375 C -12.984375 -29.710938 -13.050781 -29.320312 -13.1875 -28.9375 C -13.320312 -28.550781 -13.546875 -28.210938 -13.859375 -27.921875 L -9.03125 -27.921875 L -9.03125 -25.15625 Z M -19.5625 -25.15625 "/></g></g></g><g fill="#051d3b" fill-opacity="1"><g transform="translate(210.630618, 273.316506)"><g><path d="M 9.34375 0 L 9.34375 -15.40625 C 9.34375 -16.695312 9.046875 -17.644531 8.453125 -18.25 C 7.859375 -18.863281 6.863281 -19.171875 5.46875 -19.171875 C 4.519531 -19.171875 3.628906 -19.035156 2.796875 -18.765625 C 1.960938 -18.503906 1.160156 -18.164062 0.390625 -17.75 L 0.390625 -20.90625 C 0.921875 -21.175781 1.675781 -21.441406 2.65625 -21.703125 C 3.632812 -21.972656 4.796875 -22.109375 6.140625 -22.109375 C 8.203125 -22.109375 9.835938 -21.644531 11.046875 -20.71875 C 12.265625 -19.789062 12.875 -18.191406 12.875 -15.921875 L 12.875 0 Z M 9.34375 0 "/></g></g></g><g fill="#051d3b" fill-opacity="1"><g transform="translate(234.635754, 273.316506)"><g><path d="M 3.328125 0 L 3.328125 -21.703125 L 5.78125 -21.703125 L 6.421875 -18.265625 L 6.578125 -18.265625 C 7.023438 -19.453125 7.84375 -20.390625 9.03125 -21.078125 C 10.21875 -21.765625 11.65625 -22.109375 13.34375 -22.109375 C 15.695312 -22.109375 17.546875 -21.5 18.890625 -20.28125 C 20.234375 -19.0625 20.90625 -17.132812 20.90625 -14.5 L 20.90625 0 L 17.390625 0 L 17.390625 -14.296875 C 17.390625 -17.515625 15.816406 -19.125 12.671875 -19.125 C 11.429688 -19.125 10.375 -18.832031 9.5 -18.25 C 8.632812 -17.675781 7.976562 -16.894531 7.53125 -15.90625 C 7.082031 -14.914062 6.859375 -13.800781 6.859375 -12.5625 L 6.859375 0 Z M 3.328125 0 "/></g></g></g><g fill="#051d3b" fill-opacity="1"><g transform="translate(258.642459, 273.316506)"><g><path d="M -8.5625 -25.15625 C -10.21875 -25.15625 -11.390625 -25.488281 -12.078125 -26.15625 C -12.765625 -26.832031 -13.109375 -27.59375 -13.109375 -28.4375 C -13.109375 -28.832031 -13.046875 -29.257812 -12.921875 -29.71875 C -12.804688 -30.1875 -12.660156 -30.566406 -12.484375 -30.859375 L -9.5 -30.34375 C -9.664062 -30.019531 -9.75 -29.609375 -9.75 -29.109375 C -9.75 -28.765625 -9.640625 -28.46875 -9.421875 -28.21875 C -9.210938 -27.96875 -8.859375 -27.84375 -8.359375 -27.84375 L 1.65625 -27.84375 L 1.65625 -25.15625 Z M -8.5625 -25.15625 "/></g></g></g><g fill="#051d3b" fill-opacity="1"><g transform="translate(266.681613, 273.316506)"><g><path d="M 7.5625 0.390625 C 6.53125 0.390625 5.53125 0.285156 4.5625 0.078125 C 3.601562 -0.128906 2.582031 -0.523438 1.5 -1.109375 L 2.609375 -3.796875 C 3.191406 -3.453125 3.851562 -3.15625 4.59375 -2.90625 C 5.332031 -2.65625 6.191406 -2.53125 7.171875 -2.53125 C 9.117188 -2.53125 10.640625 -3.242188 11.734375 -4.671875 C 12.835938 -6.097656 13.390625 -8.1875 13.390625 -10.9375 C 13.390625 -13.601562 12.828125 -15.640625 11.703125 -17.046875 C 10.578125 -18.460938 8.851562 -19.171875 6.53125 -19.171875 C 5.6875 -19.171875 4.828125 -19.078125 3.953125 -18.890625 C 3.085938 -18.703125 2.320312 -18.425781 1.65625 -18.0625 L 1.65625 -21.03125 C 2.394531 -21.425781 3.226562 -21.703125 4.15625 -21.859375 C 5.082031 -22.023438 6.007812 -22.109375 6.9375 -22.109375 C 9.3125 -22.109375 11.238281 -21.640625 12.71875 -20.703125 C 14.195312 -19.765625 15.28125 -18.457031 15.96875 -16.78125 C 16.65625 -15.101562 17 -13.15625 17 -10.9375 C 17 -7.445312 16.210938 -4.6875 14.640625 -2.65625 C 13.066406 -0.625 10.707031 0.390625 7.5625 0.390625 Z M 7.5625 0.390625 "/></g></g></g><g fill="#051d3b" fill-opacity="1"><g transform="translate(294.093164, 273.316506)"><g><path d="M 9.3125 0.390625 C 7.75 0.390625 6.300781 0.238281 4.96875 -0.0625 C 3.632812 -0.363281 2.503906 -0.726562 1.578125 -1.15625 L 2.609375 -4 C 3.453125 -3.65625 4.460938 -3.320312 5.640625 -3 C 6.816406 -2.6875 8.066406 -2.53125 9.390625 -2.53125 C 10.785156 -2.53125 11.945312 -2.796875 12.875 -3.328125 C 13.800781 -3.859375 14.265625 -4.625 14.265625 -5.625 C 14.265625 -6.519531 13.894531 -7.257812 13.15625 -7.84375 C 12.414062 -8.425781 11.222656 -8.96875 9.578125 -9.46875 C 7.890625 -10 6.476562 -10.5625 5.34375 -11.15625 C 4.207031 -11.75 3.34375 -12.453125 2.75 -13.265625 C 2.15625 -14.085938 1.859375 -15.128906 1.859375 -16.390625 C 1.859375 -18.035156 2.53125 -19.398438 3.875 -20.484375 C 5.226562 -21.566406 7.382812 -22.109375 10.34375 -22.109375 C 11.601562 -22.109375 12.796875 -21.992188 13.921875 -21.765625 C 15.046875 -21.535156 15.925781 -21.222656 16.5625 -20.828125 L 16.5625 -17.859375 C 15.875 -18.179688 14.953125 -18.484375 13.796875 -18.765625 C 12.648438 -19.054688 11.457031 -19.203125 10.21875 -19.203125 C 8.425781 -19.203125 7.171875 -18.929688 6.453125 -18.390625 C 5.742188 -17.859375 5.390625 -17.25 5.390625 -16.5625 C 5.390625 -15.976562 5.550781 -15.488281 5.875 -15.09375 C 6.207031 -14.695312 6.773438 -14.3125 7.578125 -13.9375 C 8.390625 -13.570312 9.484375 -13.148438 10.859375 -12.671875 C 12.117188 -12.253906 13.273438 -11.765625 14.328125 -11.203125 C 15.390625 -10.648438 16.226562 -9.957031 16.84375 -9.125 C 17.46875 -8.289062 17.78125 -7.226562 17.78125 -5.9375 C 17.78125 -4.832031 17.507812 -3.796875 16.96875 -2.828125 C 16.425781 -1.867188 15.535156 -1.09375 14.296875 -0.5 C 13.054688 0.09375 11.394531 0.390625 9.3125 0.390625 Z M 9.3125 0.390625 "/></g></g></g><g fill="#051d3b" fill-opacity="1"><g transform="translate(315.366424, 273.316506)"><g><path d="M -10.015625 -24 C -10.203125 -24.269531 -10.351562 -24.640625 -10.46875 -25.109375 C -10.59375 -25.585938 -10.65625 -26.050781 -10.65625 -26.5 C -10.65625 -27.050781 -10.535156 -27.570312 -10.296875 -28.0625 C -10.054688 -28.550781 -9.640625 -28.953125 -9.046875 -29.265625 C -8.453125 -29.585938 -7.601562 -29.75 -6.5 -29.75 L -1.0625 -29.75 L -1.0625 -27.015625 L -5.578125 -27.015625 C -6.109375 -27.015625 -6.53125 -26.914062 -6.84375 -26.71875 C -7.164062 -26.519531 -7.328125 -26.179688 -7.328125 -25.703125 C -7.328125 -25.515625 -7.289062 -25.316406 -7.21875 -25.109375 C -7.15625 -24.898438 -7.070312 -24.691406 -6.96875 -24.484375 Z M -10.015625 -24 "/></g></g></g><g fill="#051d3b" fill-opacity="1"><g transform="translate(160.526976, 299.767684)"><g><path d="M 0.765625 0 L 0.765625 -1.984375 C 0.765625 -2.484375 0.863281 -2.867188 1.0625 -3.140625 C 1.257812 -3.410156 1.546875 -3.597656 1.921875 -3.703125 L 1.921875 -3.75 L 0.65625 -4.21875 L 0.65625 -4.53125 C 0.65625 -4.914062 0.769531 -5.269531 1 -5.59375 C 1.226562 -5.925781 1.566406 -6.1875 2.015625 -6.375 C 2.460938 -6.570312 3.007812 -6.671875 3.65625 -6.671875 C 4.550781 -6.671875 5.265625 -6.460938 5.796875 -6.046875 C 6.328125 -5.628906 6.59375 -5 6.59375 -4.15625 L 6.59375 0 L 4.796875 0 L 4.796875 -4.0625 C 4.796875 -4.457031 4.691406 -4.753906 4.484375 -4.953125 C 4.273438 -5.148438 3.984375 -5.25 3.609375 -5.25 C 3.234375 -5.25 2.953125 -5.171875 2.765625 -5.015625 C 2.585938 -4.859375 2.492188 -4.671875 2.484375 -4.453125 L 3.546875 -3.953125 L 3.40625 -3.1875 C 3.125 -3.164062 2.910156 -3.0625 2.765625 -2.875 C 2.628906 -2.6875 2.5625 -2.429688 2.5625 -2.109375 L 2.5625 0 Z M 0.765625 0 "/></g></g></g><g fill="#051d3b" fill-opacity="1"><g transform="translate(177.468155, 299.767684)"><g><path d="M 3.0625 0.15625 C 2.59375 0.15625 2.125 0.101562 1.65625 0 C 1.1875 -0.101562 0.769531 -0.25 0.40625 -0.4375 L 0.90625 -1.859375 C 1.144531 -1.734375 1.445312 -1.597656 1.8125 -1.453125 C 2.1875 -1.316406 2.582031 -1.25 3 -1.25 C 3.632812 -1.25 3.953125 -1.4375 3.953125 -1.8125 C 3.953125 -2.007812 3.832031 -2.164062 3.59375 -2.28125 C 3.351562 -2.40625 3.019531 -2.539062 2.59375 -2.6875 C 2.175781 -2.832031 1.816406 -2.988281 1.515625 -3.15625 C 1.210938 -3.332031 0.976562 -3.546875 0.8125 -3.796875 C 0.65625 -4.054688 0.578125 -4.378906 0.578125 -4.765625 C 0.578125 -5.421875 0.816406 -5.898438 1.296875 -6.203125 C 1.785156 -6.515625 2.441406 -6.671875 3.265625 -6.671875 C 3.703125 -6.671875 4.097656 -6.628906 4.453125 -6.546875 C 4.816406 -6.472656 5.097656 -6.390625 5.296875 -6.296875 L 5.296875 -4.890625 C 5.085938 -4.984375 4.796875 -5.070312 4.421875 -5.15625 C 4.046875 -5.25 3.6875 -5.296875 3.34375 -5.296875 C 2.6875 -5.296875 2.359375 -5.128906 2.359375 -4.796875 C 2.359375 -4.609375 2.484375 -4.460938 2.734375 -4.359375 C 2.992188 -4.253906 3.359375 -4.117188 3.828125 -3.953125 C 4.441406 -3.742188 4.914062 -3.488281 5.25 -3.1875 C 5.582031 -2.882812 5.75 -2.457031 5.75 -1.90625 C 5.75 -1.550781 5.664062 -1.210938 5.5 -0.890625 C 5.332031 -0.578125 5.054688 -0.320312 4.671875 -0.125 C 4.285156 0.0625 3.75 0.15625 3.0625 0.15625 Z M 3.0625 0.15625 "/></g></g></g><g fill="#051d3b" fill-opacity="1"><g transform="translate(193.148515, 299.767684)"><g><path d="M 1.953125 -3.84375 C 1.398438 -3.84375 1.015625 -3.960938 0.796875 -4.203125 C 0.578125 -4.441406 0.46875 -4.722656 0.46875 -5.046875 C 0.46875 -5.316406 0.550781 -5.597656 0.71875 -5.890625 L 2.015625 -5.734375 C 1.972656 -5.609375 1.953125 -5.476562 1.953125 -5.34375 C 1.953125 -5.238281 1.984375 -5.15625 2.046875 -5.09375 C 2.109375 -5.039062 2.21875 -5.015625 2.375 -5.015625 L 3.71875 -5.015625 L 3.71875 -3.84375 Z M 1.953125 -0.515625 C 1.398438 -0.515625 1.015625 -0.632812 0.796875 -0.875 C 0.578125 -1.113281 0.46875 -1.394531 0.46875 -1.71875 C 0.46875 -1.988281 0.550781 -2.269531 0.71875 -2.5625 L 2.015625 -2.40625 C 1.972656 -2.28125 1.953125 -2.148438 1.953125 -2.015625 C 1.953125 -1.910156 1.984375 -1.828125 2.046875 -1.765625 C 2.109375 -1.710938 2.21875 -1.6875 2.375 -1.6875 L 3.71875 -1.6875 L 3.71875 -0.515625 Z M 1.953125 -0.515625 "/></g></g></g><g fill="#051d3b" fill-opacity="1"><g transform="translate(206.925756, 299.767684)"><g><path d="M 3.765625 0.15625 C 2.734375 0.15625 1.984375 -0.0820312 1.515625 -0.5625 C 1.054688 -1.039062 0.828125 -1.738281 0.828125 -2.65625 L 0.828125 -6.515625 L 2.609375 -6.515625 L 2.609375 -2.5625 C 2.609375 -2.132812 2.703125 -1.8125 2.890625 -1.59375 C 3.078125 -1.375 3.367188 -1.265625 3.765625 -1.265625 C 4.160156 -1.265625 4.453125 -1.375 4.640625 -1.59375 C 4.828125 -1.8125 4.921875 -2.132812 4.921875 -2.5625 L 4.921875 -6.515625 L 6.703125 -6.515625 L 6.703125 -2.65625 C 6.703125 -1.738281 6.46875 -1.039062 6 -0.5625 C 5.539062 -0.0820312 4.796875 0.15625 3.765625 0.15625 Z M 3.765625 0.15625 "/></g></g></g><g fill="#051d3b" fill-opacity="1"><g transform="translate(214.550438, 299.7201)"><g><path d="M -6.390625 -7.421875 L -6.390625 -8.171875 L -5.1875 -8.671875 L -2.46875 -8.671875 L -2.46875 -9.484375 L -0.9375 -9.484375 L -0.9375 -7.421875 Z M -6.390625 -7.421875 "/></g></g><g transform="translate(214.550438, 299.7201)"><g><path d="M -2.46875 -10.125 L -2.46875 -12.328125 L -0.921875 -12.328125 L -0.921875 -10.125 Z M -2.46875 -10.125 "/></g></g></g></svg>